HIERARCHY
ROOT joint_Root
{
	OFFSET 0.0 0.0 0.0
	CHANNELS 6 Xposition Yposition Zposition Zrotation Xrotation Yrotation 
	JOINT Hips
	{
		OFFSET 4.5925 91.4895 -427.239
		CHANNELS 6 Xposition Yposition Zposition Zrotation Xrotation Yrotation 
		JOINT Spine
		{
			OFFSET 15.7357 0.0 0.0
			CHANNELS 6 Xposition Yposition Zposition Zrotation Xrotation Yrotation 
			JOINT Chest
			{
				OFFSET 8.98455 -0.406207 0.0
				CHANNELS 6 Xposition Yposition Zposition Zrotation Xrotation Yrotation 
				JOINT Neck
				{
					OFFSET 16.3773 0.0 0.0
					CHANNELS 6 Xposition Yposition Zposition Zrotation Xrotation Yrotation 
					JOINT Head
					{
						OFFSET 6.45672 0.0 0.0
						CHANNELS 6 Xposition Yposition Zposition Zrotation Xrotation Yrotation 
						End Site
						{
							OFFSET 0.0 0.0 0.0
						}
					}
				}
				JOINT Shoulder_L
				{
					OFFSET 12.9942 -0.242716 4.98039
					CHANNELS 6 Xposition Yposition Zposition Zrotation Xrotation Yrotation 
					JOINT UpperArm_L
					{
						OFFSET 5.34809 0.0 0.0
						CHANNELS 6 Xposition Yposition Zposition Zrotation Xrotation Yrotation 
						JOINT LowerArm_L
						{
							OFFSET 24.3286 1.87007e-05 0.0
							CHANNELS 6 Xposition Yposition Zposition Zrotation Xrotation Yrotation 
							JOINT Hand_L
							{
								OFFSET 22.2916 0.0 0.0
								CHANNELS 6 Xposition Yposition Zposition Zrotation Xrotation Yrotation 
								End Site
								{
									OFFSET 0.0 0.0 0.0
								}
							}
						}
					}
				}
				JOINT Shoulder_R
				{
					OFFSET 12.9945 -0.242716 -4.98039
					CHANNELS 6 Xposition Yposition Zposition Zrotation Xrotation Yrotation 
					JOINT UpperArm_R
					{
						OFFSET -5.34813 0.0 0.0
						CHANNELS 6 Xposition Yposition Zposition Zrotation Xrotation Yrotation 
						JOINT LowerArm_R
						{
							OFFSET -24.3289 0.000322201 0.0
							CHANNELS 6 Xposition Yposition Zposition Zrotation Xrotation Yrotation 
							JOINT Hand_R
							{
								OFFSET -22.2915 -0.000108084 0.0
								CHANNELS 6 Xposition Yposition Zposition Zrotation Xrotation Yrotation 
								End Site
								{
									OFFSET 0.0 0.0 0.0
								}
							}
						}
					}
				}
			}
		}
		JOINT UpperLeg_L
		{
			OFFSET -2.19248 -6.46944 0.0
			CHANNELS 6 Xposition Yposition Zposition Zrotation Xrotation Yrotation 
			JOINT LowerLeg_L
			{
				OFFSET 39.0811 0.0 -1.23785e-05
				CHANNELS 6 Xposition Yposition Zposition Zrotation Xrotation Yrotation 
				JOINT Foot_L
				{
					OFFSET 40.9854 0.0 -1.26872e-05
					CHANNELS 6 Xposition Yposition Zposition Zrotation Xrotation Yrotation 
					JOINT Toes_L
					{
						OFFSET 11.7543 0.0 0.0
						CHANNELS 6 Xposition Yposition Zposition Zrotation Xrotation Yrotation 
						End Site
						{
							OFFSET 0.0 0.0 0.0
						}
					}
				}
			}
		}
		JOINT UpperLeg_R
		{
			OFFSET -2.19251 6.46944 0.0
			CHANNELS 6 Xposition Yposition Zposition Zrotation Xrotation Yrotation 
			JOINT LowerLeg_R
			{
				OFFSET -39.0811 -0.00228153 -0.0401928
				CHANNELS 6 Xposition Yposition Zposition Zrotation Xrotation Yrotation 
				JOINT Foot_R
				{
					OFFSET -40.9854 0.0 0.0
					CHANNELS 6 Xposition Yposition Zposition Zrotation Xrotation Yrotation 
					JOINT Toes_R
					{
						OFFSET -11.7543 0.0 0.0
						CHANNELS 6 Xposition Yposition Zposition Zrotation Xrotation Yrotation 
						End Site
						{
							OFFSET 0.0 0.0 0.0
						}
					}
				}
			}
		}
	}
}
MOTION
Frames:	8
Frame Time:	0.0333333
0.000000 0.000000 0.000000 0.000000 0.000000 -0.000000 0.401507 89.103100 -514.537000 91.518400 -4.324710 -0.410217 15.735700 0.000005 -0.000001 93.755100 79.564000 -95.217200 8.984550 -0.406207 -0.000000 13.081900 1.285340 -3.071960 16.377300 -0.000001 -0.000001 1.204020 -2.703330 2.195750 6.456720 -0.000001 -0.000000 -6.797660 -2.183760 1.240370 12.994200 -0.242716 4.980390 -90.665000 2.253290 -73.552700 5.348090 -0.000007 -0.000001 -66.761600 28.005000 -10.586800 24.328600 0.000019 0.000005 8.473080 18.484900 -25.166600 22.291600 -0.000001 0.000005 10.707800 5.227490 2.020590 12.994500 -0.242716 -4.980390 88.832700 7.599190 -81.240500 -5.348130 -0.000001 -0.000004 -55.090400 30.931800 -25.133100 -24.328900 0.000322 -0.000009 -1.001240 -1.436010 -34.862400 -22.291500 -0.000108 -0.000004 20.434100 5.459550 -4.984670 -2.192480 -6.469440 -0.000000 177.001000 -6.836040 -27.051400 39.081100 -0.000007 -0.000012 -0.167228 0.225318 36.582600 40.985400 -0.000006 -0.000013 2.106680 -1.237020 -60.812000 11.754300 -0.000000 0.000003 0.000494 0.008785 -16.220700 -2.192510 6.469440 -0.000001 176.230000 18.421600 173.830000 -39.081100 -0.002282 -0.040193 0.026572 -0.028672 39.088500 -40.985400 0.000008 0.000006 7.463860 2.563690 -76.771200 -11.754300 -0.000006 -0.000006 -0.018657 -0.159732 -23.096700
0.000000 0.000000 0.000000 0.000000 0.000000 -0.000000 0.763600 88.894000 -511.842000 91.064300 -4.455330 0.524826 15.735700 0.000005 -0.000001 93.020000 79.381700 -94.509900 8.984550 -0.406207 -0.000000 13.458100 1.033000 -3.102170 16.377300 -0.000001 -0.000001 1.044610 -2.629510 1.906950 6.456720 -0.000001 -0.000000 -6.775560 -2.206560 1.459640 12.994200 -0.242716 4.980390 -90.703400 2.392040 -73.608200 5.348090 -0.000007 -0.000001 -65.904000 28.466900 -12.031200 24.328600 0.000019 0.000005 8.307680 18.500500 -24.710700 22.291600 -0.000001 0.000005 10.807900 5.220690 2.194690 12.994500 -0.242716 -4.980390 88.812200 7.778870 -81.290500 -5.348130 -0.000001 -0.000004 -57.081800 30.025300 -22.394400 -24.328900 0.000322 -0.000009 -0.919082 -1.308340 -35.059800 -22.291500 -0.000108 -0.000004 20.453800 5.459850 -4.995390 -2.192480 -6.469440 -0.000000 177.524000 -6.003620 -25.332400 39.081100 -0.000007 -0.000012 -0.231920 0.286120 39.027700 40.985400 -0.000006 -0.000013 1.897350 -2.278060 -63.771900 11.754300 -0.000000 0.000003 -0.000008 -0.000107 -16.581700 -2.192510 6.469440 -0.000001 176.099000 16.280200 172.151000 -39.081100 -0.002282 -0.040193 0.062424 -0.056900 46.117300 -40.985400 0.000008 0.000006 6.893220 0.804963 -72.777200 -11.754300 -0.000006 -0.000006 -0.046048 -0.283374 -28.232300
0.000000 0.000000 0.000000 0.000000 0.000000 -0.000000 1.111830 88.882200 -509.325000 90.545300 -4.822440 1.243780 15.735700 0.000005 -0.000001 92.743000 79.256000 -94.180800 8.984550 -0.406207 -0.000000 13.712300 0.942503 -2.989620 16.377300 -0.000001 -0.000001 0.842206 -2.426460 1.645080 6.456720 -0.000001 -0.000000 -6.791300 -2.010630 1.279940 12.994200 -0.242716 4.980390 -90.748000 2.546740 -73.627200 5.348090 -0.000007 -0.000001 -64.979000 28.911500 -14.026400 24.328600 0.000019 0.000005 8.194440 18.677100 -24.212400 22.291600 -0.000001 0.000005 11.067400 5.211560 2.427790 12.994500 -0.242716 -4.980390 88.794100 7.941350 -81.336800 -5.348130 -0.000001 -0.000004 -58.684200 29.459500 -19.842700 -24.328900 0.000322 -0.000009 -1.592290 -2.295520 -34.744800 -22.291500 -0.000108 -0.000004 20.494500 5.463210 -5.118830 -2.192480 -6.469440 -0.000000 177.918000 -6.841030 -23.241600 39.081100 -0.000007 -0.000012 -0.258647 0.306281 40.180800 40.985400 -0.000006 -0.000013 2.141320 -2.027070 -66.298900 11.754300 -0.000000 0.000003 -0.000015 -0.000189 -16.585000 -2.192510 6.469440 -0.000001 176.437000 13.659600 168.747000 -39.081100 -0.002282 -0.040193 0.095114 -0.066289 54.191900 -40.985400 0.000008 0.000006 6.151580 -1.076880 -66.626900 -11.754300 -0.000006 -0.000006 -0.048196 -0.291266 -28.563900
0.000000 0.000000 0.000000 0.000000 0.000000 -0.000000 1.339290 89.021100 -506.969000 90.108200 -4.704020 1.711130 15.735700 0.000005 -0.000001 91.569200 79.259200 -92.916900 8.984550 -0.406207 -0.000000 13.715500 0.511901 -2.757680 16.377300 -0.000001 -0.000001 0.777949 -2.184410 1.326080 6.456720 -0.000001 -0.000000 -6.692140 -1.626860 1.234470 12.994200 -0.242716 4.980390 -90.737200 2.518790 -73.681800 5.348090 -0.000007 -0.000001 -64.403800 28.685300 -15.723700 24.328600 0.000019 0.000005 8.415550 18.898000 -24.549900 22.291600 -0.000001 0.000005 11.222100 5.206990 2.543300 12.994500 -0.242716 -4.980390 88.756100 8.125850 -81.266800 -5.348130 -0.000001 -0.000004 -59.775900 29.725000 -17.743700 -24.328900 0.000322 -0.000009 -1.763690 -2.643260 -33.712000 -22.291500 -0.000108 -0.000004 20.165700 5.455820 -4.848480 -2.192480 -6.469440 -0.000000 178.329000 -7.807450 -20.980300 39.081100 -0.000007 -0.000012 -0.272564 0.321767 40.268000 40.985400 -0.000006 -0.000013 2.500070 -1.187560 -68.181800 11.754300 -0.000000 0.000003 -0.000022 -0.000275 -16.588300 -2.192510 6.469440 -0.000001 177.000000 12.080200 164.920000 -39.081100 -0.002282 -0.040193 0.114605 -0.061070 61.271000 -40.985400 0.000008 0.000006 5.107120 -3.350920 -60.617100 -11.754300 -0.000006 -0.000006 -0.018506 -0.158871 -23.061300
0.000000 0.000000 0.000000 0.000000 0.000000 -0.000000 1.462840 89.290500 -504.744000 89.720400 -4.213330 1.725610 15.735700 0.000005 -0.000001 89.982900 79.412700 -91.191800 8.984550 -0.406207 -0.000000 13.409100 -0.065664 -2.410410 16.377300 -0.000001 -0.000001 0.676233 -2.063220 1.193830 6.456720 -0.000001 -0.000000 -6.477780 -1.244300 1.109820 12.994200 -0.242716 4.980390 -90.742100 2.559100 -73.823000 5.348090 -0.000007 -0.000001 -63.620400 28.481200 -17.301500 24.328600 0.000019 0.000005 8.458300 18.030500 -25.662200 22.291600 -0.000001 0.000005 11.564900 5.205650 2.577180 12.994500 -0.242716 -4.980390 88.682100 8.289930 -80.934700 -5.348130 -0.000001 -0.000004 -60.764000 30.164800 -15.818700 -24.328900 0.000322 -0.000009 -1.078390 -1.710530 -32.201200 -22.291500 -0.000108 -0.000004 19.466500 5.450480 -4.656960 -2.192480 -6.469440 -0.000000 178.743000 -8.108300 -18.851700 39.081100 -0.000007 -0.000012 -0.279023 0.338726 39.480300 40.985400 -0.000006 -0.000013 2.715350 -0.544849 -69.490400 11.754300 -0.000000 0.000003 -0.000031 -0.000370 -16.592000 -2.192510 6.469440 -0.000001 177.840000 11.643100 161.938000 -39.081100 -0.002282 -0.040193 0.106463 -0.048342 64.920800 -40.985400 0.000008 0.000006 5.162040 -4.787930 -60.735200 -11.754300 -0.000006 -0.000006 -0.013742 -0.129742 -21.864700
0.000000 0.000000 0.000000 0.000000 0.000000 -0.000000 1.524410 89.709800 -502.623000 89.169500 -3.598590 1.707790 15.735700 0.000005 -0.000001 88.485000 79.529800 -89.432700 8.984550 -0.406207 -0.000000 13.163200 -0.592464 -1.827270 16.377300 -0.000001 -0.000001 0.514812 -2.069400 1.176260 6.456720 -0.000001 -0.000000 -6.273470 -1.016190 1.002380 12.994200 -0.242716 4.980390 -90.804600 2.791460 -73.914900 5.348090 -0.000007 -0.000001 -62.325800 28.814000 -19.164400 24.328600 0.000019 0.000005 8.518050 16.943400 -27.200000 22.291600 -0.000001 0.000005 12.231900 5.209810 2.472200 12.994500 -0.242716 -4.980390 88.605900 8.496260 -80.646000 -5.348130 -0.000001 -0.000004 -61.535900 30.522700 -13.766800 -24.328900 0.000322 -0.000009 -0.583444 -0.973638 -30.882900 -22.291500 -0.000108 -0.000004 19.093800 5.450810 -4.668680 -2.192480 -6.469440 -0.000000 179.365000 -7.814410 -16.415300 39.081100 -0.000007 -0.000012 -0.275225 0.354246 37.845300 40.985400 -0.000006 -0.000013 2.750980 -0.263416 -70.264000 11.754300 -0.000000 0.000003 -0.000044 -0.000511 -16.597400 -2.192510 6.469440 -0.000001 179.044000 11.511600 159.650000 -39.081100 -0.002282 -0.040193 0.090871 -0.041329 64.768600 -40.985400 0.000008 0.000006 4.692850 -4.689660 -61.196200 -11.754300 -0.000006 -0.000006 -0.013423 -0.127646 -21.778700
0.000000 0.000000 0.000000 0.000000 0.000000 -0.000000 1.581630 90.156900 -500.605000 88.753900 -3.138580 1.597480 15.735700 0.000005 -0.000001 87.492700 79.696200 -88.192800 8.984550 -0.406207 -0.000000 12.817800 -0.923458 -1.296450 16.377300 -0.000001 -0.000001 0.565237 -2.182720 1.164780 6.456720 -0.000001 -0.000000 -6.115490 -0.952762 1.082440 12.994200 -0.242716 4.980390 -90.774400 2.696670 -73.970900 5.348090 -0.000007 -0.000001 -61.672500 28.875500 -20.914900 24.328600 0.000019 0.000005 9.242650 17.010000 -29.084800 22.291600 -0.000001 0.000005 12.183000 5.219240 2.232190 12.994500 -0.242716 -4.980390 88.553200 8.516760 -80.321800 -5.348130 -0.000001 -0.000004 -62.481700 30.584400 -11.492800 -24.328900 0.000322 -0.000009 -0.381690 -0.665228 -29.773300 -22.291500 -0.000108 -0.000004 18.695800 5.447890 -4.564390 -2.192480 -6.469440 -0.000000 179.839000 -7.376720 -13.928800 39.081100 -0.000007 -0.000012 -0.283201 0.394010 35.707800 40.985400 -0.000006 -0.000013 2.671350 -0.301215 -70.685800 11.754300 -0.000000 0.000003 -0.000041 -0.000471 -16.595900 -2.192510 6.469440 -0.000001 -179.749000 11.465500 157.929000 -39.081100 -0.002282 -0.040193 0.068250 -0.035537 61.355300 -40.985400 0.000008 0.000006 4.200920 -3.894700 -62.674800 -11.754300 -0.000006 -0.000006 -0.012406 -0.120812 -21.498700
0.000000 0.000000 0.000000 0.000000 0.000000 -0.000000 1.590780 90.530700 -498.654000 88.329600 -2.679240 1.488670 15.735700 0.000005 -0.000001 86.457100 79.783600 -86.892700 8.984550 -0.406207 -0.000000 12.625100 -1.269000 -0.730812 16.377300 -0.000001 -0.000001 0.501572 -2.238850 1.149280 6.456720 -0.000001 -0.000000 -5.938190 -0.925862 1.196270 12.994200 -0.242716 4.980390 -90.702000 2.453740 -74.029200 5.348090 -0.000007 -0.000001 -60.923300 29.164500 -22.710100 24.328600 0.000019 0.000005 9.945390 16.825600 -31.206000 22.291600 -0.000001 0.000005 12.497600 5.229280 1.974270 12.994500 -0.242716 -4.980390 88.526600 8.526170 -80.157700 -5.348130 -0.000001 -0.000004 -63.315600 30.163300 -9.419810 -24.328900 0.000322 -0.000009 -0.242812 -0.435479 -29.032000 -22.291500 -0.000108 -0.000004 18.171100 5.441420 -4.335340 -2.192480 -6.469440 -0.000000 -179.654000 -7.015660 -11.512800 39.081100 -0.000007 -0.000012 -0.267648 0.403063 33.586100 40.985400 -0.000006 -0.000013 2.576460 -0.281079 -71.060600 11.754300 -0.000000 0.000003 -0.000076 -0.000810 -16.608800 -2.192510 6.469440 -0.000001 -178.490000 11.797300 156.869000 -39.081100 -0.002282 -0.040193 0.048906 -0.031536 55.380800 -40.985400 0.000008 0.000006 3.766930 -2.783470 -63.637900 -11.754300 -0.000006 -0.000006 -0.012743 -0.123102 -21.592500
